<svg id="Layer_3" data-name="Layer 3" xmlns="http://www.w3.org/2000/svg" viewBox="0 0 449.51 261.06"><defs><style>.cls-1{fill:#b9090b;}.cls-1,.cls-2,.cls-3{stroke:#000;}.cls-1,.cls-2{stroke-width:3px;}.cls-2,.cls-3{fill:#fff;}.cls-3{stroke-width:5px;}</style></defs><title>netflix-and-chill_logo</title><g id="Netflix"><path class="cls-1" d="M940.62,28c33.21,0,63.85,21.59,63.85,55.33,0,32.82-17.4,48.58-38.4,59.59L950,150.82,998.74,205c10.31-12,18.72-27.41,25.67-46l30.2,14.15c-7.73,21.87-17.92,41.44-30.86,57.35l25.5,27.16-32.16,23.75-19.3-21.74c-19,15.51-42.26,24.89-70.41,26.3-49.66,1.95-93-23.69-95-67.94-1.13-24.95,14.49-49.52,54.23-70.37l8-4-6-6.95C875,120.49,868.8,110.58,868.8,92.06c0-42.34,37.54-64.09,71.82-64.1Zm-31.84,146.5C884.28,186.41,875.33,199.81,876,214c1.09,24,23.86,37.44,51.44,36.35,18.32-.87,32.9-7.78,44.32-19.07L918,170ZM939.47,58c-16.53,0-34.42,11-34.42,32.1,0,11.41,3.75,16.22,14.34,28.35l7.68,8.78L948,117c12.1-5.9,21.75-13.35,21.75-31.71,0-16.58-14.45-27.33-30.27-27.33Z" transform="translate(-698.88 -26.46)"/><g id="L"><path d="M1092,248.44l-.74,8.42-42.49-3.72,4.41-50.4,11.06,1-3.67,42Z" transform="translate(-698.88 -26.46)"/><path class="cls-2" d="M1087.1,243.3l-.74,8.43L1043.87,248l4.41-50.4,11.07,1-3.67,42Z" transform="translate(-698.88 -26.46)"/><polygon points="362.07 170.75 365.31 177.25 360.55 177.25 362.07 170.75"/><polygon points="343.5 222.52 349.84 226.69 350.87 222.9 343.5 222.52"/><polygon points="389.8 215.48 393.07 221.98 388.36 221.9 389.8 215.48"/></g><g id="L-2" data-name="L"><path d="M1021.86,242.8l-.37,8.44-42.61-1.86,2.21-50.55,11.1.49-1.85,42.09Z" transform="translate(-698.88 -26.46)"/><path class="cls-2" d="M1017,237.66l-.37,8.45L974,244.24l2.21-50.54,11.1.49-1.84,42.09Z" transform="translate(-698.88 -26.46)"/><polygon points="289.03 166.5 293.31 172.86 288.56 172.86 289.03 166.5"/><polygon points="319.67 209.76 322.98 216.34 318.65 216.63 319.67 209.76"/><polygon points="273.59 219.22 280 222.92 280.72 218.83 273.59 219.22"/></g><g id="I"><path d="M935.09,248.66l.43-50.59,11.11.09-.43,50.59Z" transform="translate(-698.88 -26.46)"/><path class="cls-2" d="M930.24,243.53l.44-50.6,11.1.1-.43,50.59Z" transform="translate(-698.88 -26.46)"/><polygon points="244.33 165.16 247.75 171.71 243.41 172.14 244.33 165.16"/><polygon points="229.89 218.54 236.21 222.2 236.49 217.53 229.89 218.54"/></g><g id="H"><path d="M891.38,249l-.67-21.24-31.94,1,.68,21.24-11.11.35-1.6-50.56,11.1-.36.66,20.88,31.94-1-.67-20.87,11.11-.36,1.6,50.57Z" transform="translate(-698.88 -26.46)"/><path class="cls-2" d="M886.53,243.82l-.67-21.24-31.93,1,.67,21.24-11.1.35-1.61-50.57,11.1-.35.67,20.87,31.93-1-.67-20.88L896,192.9l1.61,50.57Z" transform="translate(-698.88 -26.46)"/><polygon points="155.42 166.25 158.96 172.94 154.28 173.25 155.42 166.25"/><polygon points="198.53 164.87 202 171.57 197.74 171.71 198.53 164.87"/><polygon points="143.21 220.13 149.46 223.87 149.74 219.08 143.21 220.13"/><polygon points="186.25 218.94 192.5 222.5 192.89 217.77 186.25 218.94"/></g><g id="C"><path d="M816.46,211.13l-9.14,5.41a20.8,20.8,0,0,0-15.76-4.85c-11.24.95-19.12,9.33-18.33,18.79s10,16.41,21.22,15.46a20.8,20.8,0,0,0,14.73-7.43l9.92,3.8c-5.13,6.75-13.81,11.58-24,12.44-17.23,1.45-32.18-9-33.38-23.3s11.77-27.1,29-28.56C800.91,202,810.28,205.33,816.46,211.13Z" transform="translate(-698.88 -26.46)"/><path class="cls-2" d="M811.62,206l-9.15,5.42a20.76,20.76,0,0,0-15.76-4.85c-11.24.94-19.12,9.33-18.32,18.79s10,16.41,21.21,15.46a20.83,20.83,0,0,0,14.73-7.43l9.92,3.8c-5.12,6.75-13.81,11.57-24,12.43-17.23,1.46-32.17-9-33.38-23.29s11.77-27.11,29-28.56C796.06,196.9,805.43,200.2,811.62,206Z" transform="translate(-698.88 -26.46)"/><polygon points="115.37 179.76 117.58 184.67 111.11 181.7 115.37 179.76"/><polygon points="117.88 209.97 120.22 215.86 112.25 214.19 117.88 209.97"/></g><g id="X"><path d="M1103.8,139.3,1090.29,84l18.11,1.83,8,36.46.32,0,15.42-34.1,16.25,1.64-24.29,51.51,14.2,57.91-18.11-1.83-8.66-39.37-.31,0-16.65,36.82-16.24-1.64Z" transform="translate(-698.88 -26.46)"/><path class="cls-3" d="M1093.85,128.58l-13.52-55.32,18.12,1.83,8,36.46.31,0,15.43-34.1,16.24,1.64-24.28,51.51,14.2,57.91-18.12-1.83-8.65-39.37-.31,0-16.65,36.82-16.24-1.64Z" transform="translate(-698.88 -26.46)"/><polygon points="401.47 46.49 409.52 59.35 402.61 58.65 401.47 46.49"/><polygon points="442.9 50.72 449.5 63.38 435.89 62.01 442.9 50.72"/><polygon points="409.34 162.34 421.31 170.97 419.9 161.49 409.34 162.34"/><polygon points="366.09 157.94 379.45 166.75 384 158.42 366.09 157.94"/></g><g id="I-2" data-name="I"><path d="M1053.63,81.42l17.23,1.21-7.72,109.61L1045.92,191Z" transform="translate(-698.88 -26.46)"/><path class="cls-3" d="M1043.68,70.7l17.22,1.21-7.71,109.61L1036,180.31Z" transform="translate(-698.88 -26.46)"/><polygon points="364.39 43.37 371.98 56.17 362.02 55.85 364.39 43.37"/><polygon points="334.73 155.91 347.04 164.57 348.66 155.41 334.73 155.91"/></g><g id="L-3" data-name="L"><path d="M989.58,78.2l17.25.74-4,94.09,28.39,1.22-.67,15.68-45.64-2Z" transform="translate(-698.88 -26.46)"/><path class="cls-3" d="M979.63,67.48l17.25.74-4,94.09,28.38,1.22-.67,15.68-45.63-2Z" transform="translate(-698.88 -26.46)"/><polygon points="300.41 39.61 307.95 52.48 298.04 52.06 300.41 39.61"/><polygon points="323.72 134.93 332.32 147.79 322.36 148.03 323.72 134.93"/><polygon points="273.74 153.05 286.01 161.52 288.49 151.06 273.74 153.05"/></g><g id="F"><path d="M924.9,77.24l45.68.39-.13,15.7L942,93.09l-.26,30.6,22.29.2-.13,15.69-22.29-.19-.42,47.88L924,187.12Z" transform="translate(-698.88 -26.46)"/><path class="cls-3" d="M915,66.52l45.68.39-.14,15.7-28.41-.24-.26,30.6,22.29.2L954,128.86l-22.29-.19-.41,47.88L914,176.4Z" transform="translate(-698.88 -26.46)"/><polygon points="264.06 38.24 271.7 51.18 261.75 51.74 264.06 38.24"/><polygon points="212.86 152.19 225.08 160.66 226.18 150.72 212.86 152.19"/><polygon points="257.18 84.34 265.18 97.43 255.55 97.95 257.18 84.34"/></g><g id="T"><path d="M870.92,93.93l-18,.48-.41-15.69,53.35-1.41L906.23,93l-18.05.47,2.49,94.15-17.26.46Z" transform="translate(-698.88 -26.46)"/><path class="cls-3" d="M861,83.21l-18.05.48L842.51,68l53.35-1.41.41,15.69-18,.47,2.49,94.15-17.27.46Z" transform="translate(-698.88 -26.46)"/><polygon points="141.95 59.5 153.99 67.95 153.99 57.78 141.95 59.5"/><polygon points="199.11 37.89 206.93 50.85 197.39 53 199.11 37.89"/><polygon points="162.32 153.23 174.53 161.62 174.25 151.16 162.32 153.23"/></g><g id="E"><path d="M789.31,82.39l47-2.93,1,15.67L807.52,97l1.8,29L833,124.49l1,15.67-23.66,1.47,2.1,33.69,29.77-1.86,1,15.67-47,2.93Z" transform="translate(-698.88 -26.46)"/><path class="cls-3" d="M779.35,71.67l47-2.93,1,15.67-29.77,1.85,1.81,29L823,113.77l1,15.67-23.65,1.47,2.1,33.69,29.76-1.86,1,15.67-47,2.93Z" transform="translate(-698.88 -26.46)"/><polygon points="129.65 39.78 137.43 53 128.74 54.29 129.65 39.78"/><polygon points="126.22 84.82 134.1 98.03 125.48 98.58 126.22 84.82"/><polygon points="135.53 133.89 143.28 147 134.49 147.55 135.53 133.89"/><polygon points="85.25 157.23 97.26 165.6 97.59 154.88 85.25 157.23"/></g><g id="N"><path d="M711.57,89.68l21.56-2.17,23.32,63.75.31,0-6.61-65.43,15.31-1.55,11,109.32-17.65,1.79-28.68-77.73-.32,0,8.07,79.8L722.62,199Z" transform="translate(-698.88 -26.46)"/><path class="cls-3" d="M701.62,79l21.55-2.17,23.33,63.75.31,0L740.2,75.07l15.3-1.55,11,109.32-17.65,1.79L720.22,106.9l-.31,0L728,186.74l-15.3,1.55Z" transform="translate(-698.88 -26.46)"/><polygon points="58.78 44.62 66.58 57.78 59.27 58.52 58.78 44.62"/><polygon points="48.62 160.64 59.98 168.89 57.85 157.71 48.62 160.64"/><polyline points="26 48.06 34.25 61.05 28.43 61.64"/><polygon points="11.74 164.36 23.74 172.55 24.27 161.03 11.74 164.36"/></g></g></svg>